HIERARCHY
ROOT root
{
	OFFSET	0	13.1	24.9
	CHANNELS 6  Xposition Yposition Zposition Xrotation Yrotation Zrotation
	JOINT spine_1
	{
		OFFSET	0	9.99999	0
		CHANNELS 3  Xrotation Yrotation Zrotation
		JOINT spine_2
		{
			OFFSET	0	112	-10
			CHANNELS 3  Xrotation Yrotation Zrotation
			JOINT spine_3
			{
				OFFSET	0	206.5	19.3
				CHANNELS 3  Xrotation Yrotation Zrotation
				JOINT spine_4
				{
					OFFSET	0	110.4	14.6
					CHANNELS 3  Xrotation Yrotation Zrotation
					JOINT neck_1
					{
						OFFSET	0	71.8	-50.3
						CHANNELS 3  Xrotation Yrotation Zrotation
						JOINT neck_2
						{
							OFFSET	0	86.2	-25.8
							CHANNELS 3  Xrotation Yrotation Zrotation
							JOINT head_ee
							{
								OFFSET	0	179.8	-8.7
								CHANNELS 3  Xrotation Yrotation Zrotation
								End Site
								{
									OFFSET	1	0	0
								}
							}
						}
					}
					JOINT left_clavicle
					{
						OFFSET	-43.2	22.4	-70.8
						CHANNELS 3  Xrotation Yrotation Zrotation
						JOINT left_shoulder
						{
							OFFSET	-93.9	-5.79999	48.7
							CHANNELS 3  Xrotation Yrotation Zrotation
							JOINT left_elbow
							{
								OFFSET	-291.4	-30.8	15.2
								CHANNELS 3  Xrotation Yrotation Zrotation
								JOINT left_lowarm_twist
								{
									OFFSET	-110.7	-3.89999	13.6
									CHANNELS 3  Xrotation Yrotation Zrotation
									JOINT left_hand
									{
										OFFSET	-110.7	-3.89999	13.6
										CHANNELS 3  Xrotation Yrotation Zrotation
										JOINT left_ee
										{
											OFFSET	-80.8	-5.10001	12.1
											CHANNELS 3  Xrotation Yrotation Zrotation
											End Site
											{
												OFFSET	1	0	0
											}
										}
									}
								}
							}
						}
					}
					JOINT right_clavicle
					{
						OFFSET	43.2	22.4	-70.8
						CHANNELS 3  Xrotation Yrotation Zrotation
						JOINT right_shoulder
						{
							OFFSET	93.9	-5.79999	48.7
							CHANNELS 3  Xrotation Yrotation Zrotation
							JOINT right_elbow
							{
								OFFSET	291.4	-30.8	15.2
								CHANNELS 3  Xrotation Yrotation Zrotation
								JOINT right_lowarm_twist
								{
									OFFSET	110.7	-3.89999	13.6
									CHANNELS 3  Xrotation Yrotation Zrotation
									JOINT right_hand
									{
										OFFSET	110.7	-3.89999	13.6
										CHANNELS 3  Xrotation Yrotation Zrotation
										JOINT right_ee
										{
											OFFSET	80.8	-5.10001	12.1
											CHANNELS 3  Xrotation Yrotation Zrotation
											End Site
											{
												OFFSET	1	0	0
											}
										}
									}
								}
							}
						}
					}
				}
			}
		}
	}
	JOINT left_hip
	{
		OFFSET	-82.8	-127.5	0.300001
		CHANNELS 3  Xrotation Yrotation Zrotation
		JOINT left_knee
		{
			OFFSET	-28.2	-396.7	2.2
			CHANNELS 3  Xrotation Yrotation Zrotation
			JOINT left_ankle
			{
				OFFSET	-11.7	-411.3	35.4
				CHANNELS 3  Xrotation Yrotation Zrotation
				JOINT left_toes
				{
					OFFSET	0	-60	-88.6
					CHANNELS 3  Xrotation Yrotation Zrotation
					JOINT left_foot_ee
					{
						OFFSET	-22.5	-16.5	-42.2
						CHANNELS 3  Xrotation Yrotation Zrotation
						End Site
						{
							OFFSET	1	0	0
						}
					}
				}
			}
		}
	}
	JOINT right_hip
	{
		OFFSET	82.8	-127.5	0.300001
		CHANNELS 3  Xrotation Yrotation Zrotation
		JOINT right_knee
		{
			OFFSET	28.2	-396.7	2.2
			CHANNELS 3  Xrotation Yrotation Zrotation
			JOINT right_ankle
			{
				OFFSET	11.7	-411.3	35.4
				CHANNELS 3  Xrotation Yrotation Zrotation
				JOINT right_toes
				{
					OFFSET	0	-60	-88.6
					CHANNELS 3  Xrotation Yrotation Zrotation
					JOINT right_foot_ee
					{
						OFFSET	22.5	-16.5	-42.2
						CHANNELS 3  Xrotation Yrotation Zrotation
						End Site
						{
							OFFSET	1	0	0
						}
					}
				}
			}
		}
	}
}
MOTION
Frames: 6
Frame Time: 0.02
3177.02 653.055 -1669.29 2.53231182894 24.7303179728 9.49984271282 -4.13244 -0.347951 -2.43389 -4.12916 -0.192418 -2.45108 -4.11564 0.501319 -2.407 -4.12371 0.115007 -2.45593 8.17649 13.1619 7.96709 8.48156 14.7535 9.70805 -0.0 0.0 -0.0 -0.483868 13.4776 0.795898 -2.90137 -3.15653 81.0871 0.222192 -6.28126 0.0121916 14.3909 0.280792 -1.81205 2.26228 -6.43443 12.6372 -0.0 0.0 -0.0 12.5823 20.9269 -25.2066 19.5742 19.5316 -47.4306 1.7059 40.1962 -0.624249 61.083 1.87129 7.20693 2.41488 0.119944 -16.3118 0.0 0.0 0.0 15.9237 -51.2074 -14.9286 -16.6458 0.320493 2.5254 -5.32038 29.3452 0.841986 -3.3267 0.0 0.0 -0.0 0.0 -0.0 -10.2621 -0.365485 -13.5379 -19.2362 -0.303945 -2.92245 24.725 -0.739124 3.31652 19.6982 -0.0 -0.0 0.0 0.0 0.0 
3164.22655375 650.43 -1685.82323193 3.67530675885 24.3880431839 9.60760384156 -4.33087 -0.417769 -2.60501 -4.32714 -0.251217 -2.6263 -4.30924 0.502665 -2.58998 -4.31859 0.0874661 -2.63683 8.92934 12.4191 8.04482 9.18878 13.2381 9.81745 -0.0 0.0 -0.0 -0.161361 13.7828 1.36135 -2.07457 -3.664 81.1058 0.243124 -6.8676 0.0145883 14.4094 0.280858 -1.81441 2.19582 -5.9624 12.3793 -0.0 0.0 -0.0 12.64 21.0461 -25.3308 18.2154 18.6482 -47.6465 1.65808 39.3953 -0.593637 61.9574 1.95125 7.2855 2.48877 0.0789455 -16.8442 0.0 0.0 0.0 16.9534 -51.5582 -13.2432 -20.9961 0.282468 3.19164 -8.11817 29.583 1.2923 -1.22114 0.0 0.0 -0.0 0.0 -0.0 -10.8095 1.91996 -14.0714 -21.3483 -0.277179 -3.24541 26.2679 -2.09786 3.48663 20.7719 -0.0 -0.0 0.0 0.0 0.0 
3146.24672193 651.525 -1701.82245219 4.42218836577 23.7368450097 9.65991527986 -4.54095 -0.521529 -2.70264 -4.53695 -0.348561 -2.73032 -4.513 0.448352 -2.71573 -4.52329 0.0139954 -2.75243 9.2547 11.8321 8.62127 9.48417 11.6425 10.528 -0.0 0.0 -0.0 0.33413 13.922 2.18484 -0.361083 -4.00227 80.9281 0.270396 -7.62933 0.0180293 14.6538 0.281659 -1.84562 2.1533 -5.66295 12.2129 -0.0 0.0 -0.0 12.6452 20.8249 -25.3602 16.5895 17.7739 -47.4501 1.57653 37.9859 -0.542655 62.8571 2.03479 7.36509 2.53671 -0.264035 -17.3163 0.0 0.0 0.0 18.0664 -51.5032 -11.1036 -24.443 0.216504 3.71637 -11.6496 29.5446 1.86222 0.287985 -0.0 -0.0 -0.0 0.0 -0.0 -11.0319 4.1038 -13.9267 -22.8569 -0.250779 -3.4754 25.7773 -3.43816 3.42539 21.369 -0.0 -0.0 0.0 0.0 0.0 
3146.2238207 651.525 -1701.80077405 4.42355787829 23.7770716884 9.65651578684 -4.54095 -0.521529 -2.70264 -4.53695 -0.348561 -2.73032 -4.513 0.448352 -2.71573 -4.52329 0.0139954 -2.75243 9.2547 11.8321 8.62127 9.48417 11.6425 10.528 -0.0 0.0 -0.0 0.33413 13.922 2.18484 -0.361083 -4.00227 80.9281 0.270396 -7.62933 0.0180293 14.6538 0.281659 -1.84562 2.1533 -5.66295 12.2129 -0.0 0.0 -0.0 12.6452 20.8249 -25.3602 16.5895 17.7739 -47.4501 1.57653 37.9859 -0.542655 62.8571 2.03479 7.36509 2.53671 -0.264035 -17.3163 0.0 0.0 0.0 18.0664 -51.5032 -11.1036 -24.443 0.216504 3.71637 -11.6496 29.5446 1.86222 0.287985 -0.0 -0.0 -0.0 0.0 -0.0 -11.0319 4.1038 -13.9267 -22.8569 -0.250779 -3.4754 25.7773 -3.43816 3.42539 21.369 -0.0 -0.0 0.0 0.0 0.0 
3111.89706835 667.492 -1739.30329601 5.5091057587 22.3396343875 10.3001298497 -4.95742 -0.689672 -3.00639 -4.95253 -0.497061 -3.04413 -4.91611 0.417429 -3.05606 -4.92913 -0.0702194 -3.08361 9.78905 11.7208 9.80761 10.0181 10.2105 12.0066 -0.0 0.0 -0.0 1.78678 13.1392 4.49577 3.78408 -3.91344 79.0072 0.288745 -8.14031 0.0205463 15.5023 0.283409 -1.95397 2.07858 -5.16397 11.9086 -0.0 0.0 -0.0 12.1743 20.685 -24.2843 11.4214 16.3734 -47.6699 1.34761 33.724 -0.408476 63.1444 2.06172 7.39022 2.6097 -0.86921 -18.0677 0.0 0.0 0.0 18.4264 -50.8088 -8.65493 -29.3798 0.0673216 4.4591 -16.2205 29.6627 2.60576 2.19688 -0.0 -0.0 -0.0 0.0 -0.0 -10.239 7.19598 -14.5429 -24.5507 -0.213933 -3.73271 27.2141 -5.19198 3.58387 22.0621 -0.0 -0.0 0.0 0.0 0.0 
3075.60185672 672.231 -1784.74047515 7.1912908462 19.1750889403 9.32475449363 -5.7359 -0.821984 -3.18084 -5.73048 -0.618021 -3.22663 -5.68293 0.398901 -3.26094 -5.69775 -0.120824 -3.28301 12.4511 14.6843 11.8647 12.7369 12.2925 14.7954 -0.0 0.0 -0.0 3.17259 9.81222 6.65024 7.77441 -2.58086 77.5825 0.340189 -9.56579 0.0284642 17.4262 0.281431 -2.19969 2.43767 -7.95209 13.1959 -0.0 0.0 -0.0 10.4755 21.052 -20.3914 8.19298 14.789 -50.0445 1.13914 29.4348 -0.299226 63.7058 2.11472 7.43895 2.24123 -1.74807 -15.8417 0.0 0.0 0.0 20.8962 -51.4966 -1.33588 -37.3301 -0.305706 5.62087 -16.7246 29.7304 2.68892 7.53365 -0.0 -0.0 -0.0 0.0 -0.0 -5.7554 15.0701 -15.704 -31.9667 0.0362739 -4.84254 25.8405 -9.07863 3.43078 25.2621 -0.0 -0.0 0.0 0.0 0.0 
